<?xml version="1.0" encoding="UTF-8" standalone="no"?>
<svg
   xmlns:dc="http://purl.org/dc/elements/1.1/"
   xmlns:cc="http://creativecommons.org/ns#"
   xmlns:rdf="http://www.w3.org/1999/02/22-rdf-syntax-ns#"
   xmlns:svg="http://www.w3.org/2000/svg"
   xmlns="http://www.w3.org/2000/svg"
   xmlns:sodipodi="http://sodipodi.sourceforge.net/DTD/sodipodi-0.dtd"
   xmlns:inkscape="http://www.inkscape.org/namespaces/inkscape"
   viewBox="0 0 36 36"
   version="1.1"
   id="svg3839"
   sodipodi:docname="glenda.svg"
   inkscape:version="0.92.4 5da689c313, 2019-01-14">
  <metadata
     id="metadata3845">
    <rdf:RDF>
      <cc:Work
         rdf:about="">
        <dc:format>image/svg+xml</dc:format>
        <dc:type
           rdf:resource="http://purl.org/dc/dcmitype/StillImage" />
        <dc:title></dc:title>
      </cc:Work>
    </rdf:RDF>
  </metadata>
  <defs
     id="defs3843" />
  <sodipodi:namedview
     pagecolor="#ffffff"
     bordercolor="#666666"
     borderopacity="1"
     objecttolerance="10"
     gridtolerance="10"
     guidetolerance="10"
     inkscape:pageopacity="0"
     inkscape:pageshadow="2"
     inkscape:window-width="1076"
     inkscape:window-height="911"
     id="namedview3841"
     showgrid="false"
     inkscape:zoom="10.722222"
     inkscape:cx="18.186528"
     inkscape:cy="18"
     inkscape:window-x="1920"
     inkscape:window-y="987"
     inkscape:window-maximized="0"
     inkscape:current-layer="svg3839" />
  <path
     fill="#E1E8ED"
     d="M35 36v-3.5c0-2.486-2.073-4.337-4.508-5.107-.409-.129-17.117.044-17.117.044C10.998 28.232 9 30.06 9 32.5V36h26z"
     id="path3799" />
  <path
     fill="#EA596E"
     d="M29.799 27.127c0 1.36-3.491 2.434-7.799 2.434s-7.798-1.06-7.798-2.42c0-.062-1.41-.042-1.41-.042l.005 1.019c.114 2.405 4.186 3.392 9.204 3.392 4.997 0 9.054-1.009 9.199-3.413l.015-.974c-.001-.001-1.416-.058-1.416.004z"
     id="path3801" />
  <path
     fill="#BE1931"
     d="M22 23.632c-5.089 0-9.214 1.539-9.214 3.438 0 1.899 4.125 3.439 9.214 3.439s9.214-1.54 9.214-3.439-4.125-3.438-9.214-3.438"
     id="path3803" />
  <path
     fill="#292F33"
     d="M22 29.533c-4.307 0-7.799-1.104-7.799-2.464 0-1.359 3.492-2.463 7.799-2.463s7.799 1.104 7.799 2.463c0 1.361-3.492 2.464-7.799 2.464"
     id="path3805" />
  <path
     fill="#FFDC5D"
     d="M18.328 27.02c1.466 1.065 2.964 1.207 3.672 1.207s2.194-.142 3.66-1.207v-3.205h-7.332v3.205z"
     id="path3809"
     style="fill:#99aab5;fill-opacity:1" />
  <path
     fill="#F9CA55"
     d="M18.321 25.179c1.023 1.155 2.291 1.468 3.669 1.468 1.379 0 2.647-.312 3.67-1.468v-2.936h-7.339v2.936z"
     id="path3811"
     style="fill:#8a9aa3;fill-opacity:1" />
  <path
     fill="#55ACEE"
     d="M32 33h3v3h-3z"
     id="path3823" />
  <path
     fill="#FFCC4D"
     d="M33 34h2v2h-2z"
     id="path3825" />
  <path
     fill="#E1E8ED"
     d="M24.004 36c-1.198-5.146-6.048-9-11.857-9C6.338 27 1.489 30.854.291 36h23.713z"
     id="path3827" />
  <path
     fill="#292F33"
     d="M22.669 36c-1.173-4.464-5.432-7.778-10.522-7.778-5.089 0-9.349 3.314-10.522 7.778h21.044z"
     id="path3829" />
  <path
     fill="#FFAC33"
     d="M21.638 36c-1.148-3.937-4.956-6.833-9.49-6.833S3.805 32.063 2.657 36h18.981z"
     id="path3831" />
  <path
     fill="#FFDC5D"
     d="M18.195 35.049l.103-.063c.767-.467.928-1.538.3-2.182-.467-.48-.993-.909-1.566-1.268-.56-.35-1.158-.621-1.784-.827-.828-.272-1.711.232-1.866 1.092-.119.66.225 1.346.855 1.577.865.318 1.627.827 2.232 1.474.442.472 1.173.533 1.726.197"
     id="path3833" />
  <path
     fill="#9266CC"
     d="M6.344 14.262l-1.542-.571-.6-2.2c-.079-.29-.343-.491-.644-.491-.3 0-.564.201-.643.491l-.6 2.2-1.542.571c-.262.096-.435.346-.435.625s.173.529.435.625l1.534.568.605 2.414c.074.297.341.506.646.506.306 0 .573-.209.647-.505l.605-2.414 1.534-.568c.262-.096.435-.346.435-.625 0-.28-.173-.53-.435-.626"
     id="path3835" />
  <path
     fill="#5DADEC"
     d="M11.28 4.634l-2.61-.966-.966-2.61c-.16-.433-.573-.72-1.035-.72-.461 0-.874.287-1.035.72l-.966 2.61-2.609.966c-.434.161-.722.573-.722 1.035 0 .462.287.874.721 1.035l2.609.966.966 2.61c.161.433.575.72 1.035.72.462 0 .875-.287 1.035-.72l.966-2.61 2.61-.966c.433-.161.721-.573.721-1.035 0-.462-.288-.874-.72-1.035"
     id="path3837" />
  <g
     id="g3936"
     transform="matrix(0.6671171,0,0,0.6671171,10.049103,0.04578257)">
    <path
       id="path3907"
       d="M 33.799,0.005 C 33.332,-0.173 25.801,3.976 23.83,9.136 22.664,12.188 22.144,15.194 22.178,17.248 20.709,16.459 19.257,16 18,16 16.743,16 15.291,16.458 13.822,17.249 13.855,15.194 13.336,12.188 12.17,9.137 10.2,3.977 2.668,-0.173 2.201,0.005 1.746,0.179 6.469,16.049 9.226,20.843 6.805,23.405 5,26.661 5,29.828 c 0,3.234 1.635,5.14 4,5.94 2.531,0.857 5,-0.94 9,-0.94 4,0 6.469,1.798 9,0.94 2.365,-0.801 4,-2.706 4,-5.94 0,-3.166 -1.805,-6.423 -4.225,-8.984 2.755,-4.795 7.48,-20.665 7.024,-20.839 z"
       inkscape:connector-curvature="0"
       style="fill:#99aab5" />
    <path
       id="path3909"
       d="m 12.692,17.922 c -0.178,-1.54 -0.68,-3.55 -1.457,-5.584 C 9.701,8.322 5.549,5.093 5.186,5.231 c -0.319,0.122 2.627,10.14 4.783,14.863 0.866,-0.824 1.786,-1.563 2.723,-2.172 z m 13.338,2.172 c 2.156,-4.723 5.102,-14.741 4.784,-14.862 -0.363,-0.139 -4.516,3.091 -6.05,7.107 -0.777,2.034 -1.279,4.043 -1.457,5.583 0.937,0.609 1.857,1.348 2.723,2.172 z"
       inkscape:connector-curvature="0"
       style="fill:#f4abba" />
    <path
       id="path3911"
       d="m 25,30 c 0,2.762 -3.06,5 -6.834,5 -3.773,0 -6.833,-2.238 -6.833,-5 0,-2.762 3.06,-5 6.833,-5 C 21.94,25 25,27.238 25,30 Z"
       inkscape:connector-curvature="0"
       style="fill:#ccd6dd" />
    <path
       id="path3913"
       d="m 21,30.578 c 0,2.762 -0.238,3 -3,3 -2.761,0 -3,-0.238 -3,-3 0,-1 6,-1 6,0 z"
       inkscape:connector-curvature="0"
       style="fill:#ffffff" />
    <circle
       id="circle3915"
       r="1.5"
       cy="24.327999"
       cx="12.5"
       style="fill:#292f33" />
    <circle
       id="circle3917"
       r="1.5"
       cy="24.327999"
       cx="23.5"
       style="fill:#292f33" />
    <path
       id="path3919"
       d="m 21,25.828 c 0,1.657 -2,3 -3,3 -1,0 -3,-1.343 -3,-3 0,-1.657 6,-1.657 6,0 z"
       inkscape:connector-curvature="0"
       style="fill:#f4abba" />
  </g>
</svg>
